<svg width="84" height="136" viewBox="0 0 84 136" fill="none" xmlns="http://www.w3.org/2000/svg">
<g id="Vector" filter="url(#filter0_d_1_917)">
<path d="M-2.4321 22.5903V45.1805L-14.2183 39.2874C-20.7007 36.1444 -26.7902 33.3943 -27.9689 33.3943C-32.4869 33.3943 -29.3439 39.4838 -20.8971 46.9484C-14.8076 52.2522 -12.6468 55.1987 -14.4147 55.788C-15.9862 56.3773 -27.576 59.5203 -40.5408 62.6633C-64.7025 68.5564 -69.6134 71.1101 -65.8811 74.8424C-64.5061 76.2174 -55.0771 75.6281 -34.0584 72.4852C-17.5577 70.1279 -3.61071 68.7529 -3.0214 69.3422C-2.4321 70.1279 -5.77152 77.0032 -10.2896 84.8607C-15.004 92.7181 -18.9328 99.7898 -19.3256 100.379C-19.7185 101.165 -18.7363 102.736 -17.3613 103.915C-15.004 105.879 -13.0397 104.897 -6.7537 99.397C-2.4321 95.4682 1.88951 92.3252 2.87169 92.3252C3.85387 92.3252 5.81824 98.2183 7.38973 105.487C10.7292 122.38 13.0864 127.684 17.408 127.684C22.7118 127.684 23.694 121.594 22.1225 99.0041C21.3367 87.6108 21.3367 78.5747 22.3189 78.5747C23.3011 78.5747 31.1586 81.7177 39.8018 85.45C56.8918 92.9146 62.392 93.8967 62.392 89.5751C62.392 85.6464 59.249 82.8963 44.1234 72.4852C36.8552 67.7707 30.9621 63.2526 30.9621 62.6633C30.9621 62.074 40.9804 58.7346 53.1595 55.1987C74.9639 48.9128 84 44.7876 84 41.2517C84 38.3052 71.6245 38.8945 51.9808 42.4304C42.5519 44.1983 34.1051 45.1805 33.5158 44.3947C32.9265 43.8054 34.3015 38.6981 36.6588 33.1978C45.4984 11.7862 39.9982 9.82188 26.2476 29.662C21.1403 37.323 16.0329 42.8232 15.2472 41.841C14.4614 41.0553 12.3007 33.1978 10.3363 24.5546C6.40755 6.08958 3.85387 4.57764e-05 0.121582 4.57764e-05C-1.84279 4.57764e-05 -2.4321 5.1074 -2.4321 22.5903Z" fill="#F3ABCB"/>
<path d="M-1.4321 45.1805V46.7985L-2.87931 46.0749L-14.6546 40.1872C-14.6564 40.1863 -14.6583 40.1854 -14.6601 40.1845C-17.8941 38.6166 -21.0212 37.151 -23.4819 36.079C-24.7144 35.5421 -25.7679 35.1091 -26.5786 34.8121C-26.9848 34.6633 -27.3173 34.5534 -27.5739 34.4819C-27.7019 34.4462 -27.8019 34.4227 -27.8767 34.4086C-27.957 34.3935 -27.9821 34.3943 -27.9689 34.3943C-28.4341 34.3943 -28.6953 34.4746 -28.8275 34.5472C-28.9316 34.6043 -28.9735 34.6627 -29.0009 34.7529C-29.0872 35.0372 -29.0281 35.7174 -28.4076 36.9108C-27.2163 39.2017 -24.4295 42.4919 -20.2377 46.1966C-17.189 48.8521 -15.0537 50.9756 -13.903 52.5448C-13.3471 53.3028 -12.9116 54.0735 -12.8315 54.7936C-12.7878 55.187 -12.8445 55.6222 -13.1039 56.0113C-13.3551 56.3881 -13.7205 56.6074 -14.0797 56.7304C-14.95 57.0529 -18.2899 57.9971 -22.9485 59.2345C-27.6695 60.4885 -33.8146 62.0617 -40.3038 63.6348C-52.4113 66.5879 -59.5672 68.6767 -63.2334 70.4622C-64.14 70.9038 -64.792 71.3077 -65.2395 71.6753C-65.6901 72.0453 -65.8811 72.3355 -65.9548 72.5369C-66.0571 72.8169 -66.0375 73.2717 -65.174 74.1353C-65.1759 74.1334 -65.1769 74.1324 -65.1768 74.1323C-65.1758 74.1311 -65.074 74.2094 -64.7348 74.2956C-64.3877 74.3838 -63.8923 74.4557 -63.2213 74.4982C-61.8819 74.583 -59.9695 74.5436 -57.4074 74.3606C-52.2907 73.9951 -44.7098 73.0668 -34.2063 71.4961L-34.1998 71.4952C-25.9391 70.3151 -18.313 69.3802 -12.6731 68.8137C-9.85514 68.5307 -7.52192 68.3385 -5.84936 68.2544C-5.01613 68.2125 -4.32727 68.1964 -3.81725 68.2118C-3.56531 68.2194 -3.32959 68.2354 -3.13089 68.2665C-3.03249 68.282 -2.91693 68.305 -2.80147 68.3432C-2.71048 68.3733 -2.49957 68.4498 -2.3143 68.6351L-2.26405 68.6853L-2.22141 68.7422C-2.01957 69.0113 -1.97186 69.3056 -1.95882 69.4884C-1.94463 69.6872 -1.96297 69.887 -1.99131 70.0674C-2.04822 70.4299 -2.16915 70.8567 -2.32709 71.3176C-2.64588 72.248 -3.16777 73.4659 -3.83649 74.8776C-5.17773 77.7091 -7.15602 81.4172 -9.42265 85.3591L-9.42728 85.3672L-9.43206 85.3752C-11.7846 89.296 -13.9418 93.0221 -15.5609 95.8432C-16.0692 96.7289 -16.5286 97.5329 -16.9259 98.2282C-17.6644 99.5204 -18.1882 100.437 -18.4123 100.805C-18.411 100.824 -18.4076 100.852 -18.3994 100.891C-18.3696 101.032 -18.2912 101.238 -18.1402 101.5C-17.8401 102.02 -17.3329 102.621 -16.7159 103.151C-16.2098 103.572 -15.8089 103.764 -15.4354 103.824C-15.065 103.883 -14.6 103.831 -13.9316 103.539C-12.5289 102.925 -10.5854 101.421 -7.41927 98.6506C-5.23902 96.669 -3.05377 94.8805 -1.27959 93.5811C-0.393356 92.932 0.404976 92.3941 1.05749 92.0138C1.38267 91.8242 1.68889 91.6636 1.96272 91.5474C2.2054 91.4444 2.53654 91.3252 2.87169 91.3252C3.46801 91.3252 3.86568 91.7361 4.04156 91.9406C4.26495 92.2004 4.46969 92.5362 4.65795 92.8977C5.03934 93.6301 5.44514 94.6493 5.85643 95.8582C6.68282 98.2873 7.57619 101.617 8.36715 105.275L8.36903 105.284L8.37075 105.293C10.042 113.747 11.4485 119.19 12.9425 122.51C13.687 124.164 14.4176 125.208 15.1429 125.835C15.8376 126.435 16.5616 126.684 17.408 126.684C18.5191 126.684 19.2722 126.378 19.8526 125.719C20.4814 125.004 21.0116 123.759 21.3566 121.654C22.0467 117.442 21.9121 110.39 21.1249 99.0735L21.1248 99.0729C20.731 93.3625 20.533 88.2279 20.5577 84.5102C20.5701 82.6573 20.6378 81.1259 20.7708 80.0428C20.8362 79.5103 20.9236 79.0301 21.0504 78.6605C21.1121 78.4809 21.2054 78.2593 21.3575 78.0641C21.5106 77.8678 21.8276 77.5747 22.3189 77.5747C22.6042 77.5747 22.9673 77.6682 23.2728 77.7556C23.6249 77.8564 24.0665 78.0008 24.5795 78.1801C25.6077 78.5395 26.9662 79.0546 28.5551 79.6828C31.7353 80.94 35.8706 82.6631 40.1982 84.5319L40.202 84.5336C48.763 88.2728 54.3061 90.3342 57.6845 90.9485C59.4016 91.2607 60.3391 91.1533 60.8114 90.9126C61.1419 90.744 61.392 90.4322 61.392 89.5751C61.392 88.7469 61.2314 88.0052 60.7868 87.1905C60.3288 86.3514 59.5497 85.3988 58.2501 84.1946C55.6388 81.7749 51.1407 78.5294 43.5676 73.3166C39.9212 70.951 36.6161 68.6327 34.2159 66.8263C33.0165 65.9237 32.0314 65.1402 31.3397 64.5377C30.9965 64.2388 30.7071 63.9686 30.4962 63.741C30.3925 63.6292 30.287 63.5055 30.2011 63.3782C30.158 63.3143 30.1066 63.2302 30.0632 63.131C30.0241 63.0417 29.9621 62.8751 29.9621 62.6633C29.9621 62.3034 30.1421 62.0591 30.2161 61.9683C30.3065 61.8574 30.4051 61.776 30.4747 61.7234C30.6177 61.6154 30.7893 61.5173 30.9555 61.4309C31.2977 61.2532 31.7731 61.0461 32.3468 60.8169C33.5025 60.3553 35.1563 59.7651 37.1757 59.0879C41.2195 57.7317 46.7826 56.0088 52.8806 54.2384L52.8824 54.2379C63.7784 51.0967 71.4293 48.5103 76.3436 46.2831C78.8058 45.1672 80.5232 44.1668 81.6102 43.268C82.7149 42.3546 82.9976 41.6909 83 41.2574C82.9903 41.243 82.9557 41.1989 82.8634 41.1355C82.646 40.986 82.2358 40.8155 81.5566 40.6748C80.2116 40.3962 78.149 40.2997 75.3966 40.4093C69.9163 40.6276 61.9654 41.6493 52.1613 43.4139C47.4317 44.3007 42.938 44.9924 39.5423 45.3642C37.8479 45.5497 36.4039 45.6582 35.3326 45.6678C34.8013 45.6726 34.327 45.6537 33.9464 45.5978C33.7576 45.5701 33.5574 45.5285 33.3713 45.46C33.2203 45.4044 32.9646 45.291 32.7615 45.0519C32.5993 44.8707 32.5166 44.6714 32.4717 44.5244C32.4206 44.3572 32.3976 44.1887 32.3873 44.0385C32.3668 43.7391 32.3896 43.3971 32.4349 43.0431C32.5264 42.328 32.7305 41.4109 33.0187 40.3708C33.597 38.2838 34.5452 35.5916 35.7371 32.8099C37.9352 27.4849 39.2166 23.4268 39.7104 20.6474C39.959 19.2478 39.9936 18.2476 39.8879 17.5993C39.8358 17.2796 39.7574 17.0965 39.696 17.0012C39.6448 16.9218 39.6121 16.9106 39.5984 16.9059L39.5978 16.9056C39.526 16.8808 39.1866 16.8432 38.4101 17.2853C37.6787 17.7017 36.7464 18.4391 35.6194 19.5466C33.3735 21.7538 30.4942 25.2909 27.0748 30.2241C24.5023 34.0821 21.9201 37.4118 19.866 39.6662C18.8448 40.7871 17.9221 41.6777 17.1757 42.2324C16.8129 42.5021 16.4227 42.7451 16.0385 42.8671C15.6854 42.9792 14.9912 43.0762 14.5006 42.507C14.2765 42.2642 14.1058 41.9187 13.9792 41.6375C13.8244 41.2935 13.6571 40.8583 13.4808 40.3544C13.1271 39.3438 12.7155 37.9952 12.2711 36.4151C11.3812 33.2513 10.3459 29.1089 9.36115 24.7762L9.36105 24.7763L9.35818 24.7627C7.39312 15.527 5.78833 9.4723 4.23219 5.73756C3.45342 3.86852 2.71893 2.66183 2.01858 1.93285C1.34667 1.23346 0.736015 1.00005 0.121582 1.00005C0.120781 1.00005 0.120354 0.999725 0.119942 0.999413C0.118385 0.998238 0.117065 0.997238 0.0961761 1.01502C0.0474396 1.05653 -0.060173 1.17757 -0.191109 1.4746C-0.458344 2.08083 -0.703911 3.13899 -0.898277 4.85183C-1.28378 8.24915 -1.4321 13.8414 -1.4321 22.5903V45.1805Z" stroke="black" stroke-width="2"/>
</g>
<defs>
<filter id="filter0_d_1_917" x="-67" y="6.10352e-05" width="151" height="135.448" filterUnits="userSpaceOnUse" color-interpolation-filters="sRGB">
<feFlood flood-opacity="0" result="BackgroundImageFix"/>
<feColorMatrix in="SourceAlpha" type="matrix" values="0 0 0 0 0 0 0 0 0 0 0 0 0 0 0 0 0 0 127 0" result="hardAlpha"/>
<feOffset dy="7.76457"/>
<feComposite in2="hardAlpha" operator="out"/>
<feColorMatrix type="matrix" values="0 0 0 0 0.745098 0 0 0 0 0.74902 0 0 0 0 0.705882 0 0 0 1 0"/>
<feBlend mode="normal" in2="BackgroundImageFix" result="effect1_dropShadow_1_917"/>
<feBlend mode="normal" in="SourceGraphic" in2="effect1_dropShadow_1_917" result="shape"/>
</filter>
</defs>
</svg>
