<svg width="30" height="45" viewBox="0 0 30 45" fill="none" xmlns="http://www.w3.org/2000/svg">
<g id="Frame 43">
<path id="Vector" d="M17.8955 0.819344C15.0661 2.09712 11.9629 6.34116 10.457 10.9959L9.90936 12.73L7.26254 12.6844C3.79429 12.6388 1.92326 13.5971 0.782392 16.0614C-2.27514 22.861 4.02246 36.9165 12.83 42.9859C15.9788 45.1764 16.3895 44.9939 19.447 40.4304C24.8319 32.3986 27.3875 27.0594 29.076 20.488C32.3617 7.39076 26.4748 -3.05962 17.8955 0.819344ZM23.1435 3.83124C25.0145 4.78957 26.3835 7.93838 26.703 11.9086C27.1593 18.4344 24.1474 26.9225 17.8955 36.7796C16.2526 39.3808 14.7466 41.48 14.5185 41.48C13.5601 41.48 8.58595 35.3193 6.89746 32.0792C1.55818 21.857 2.24271 14.0534 8.31214 16.3808C9.13357 16.7003 9.54428 17.2479 9.72682 18.5257C10.6395 23.9562 13.3776 28.2459 15.9332 28.2459C17.576 28.2459 18.6256 26.7399 18.6256 24.3669C18.58 21.9483 17.3022 19.1645 14.9748 16.6546L13.0582 14.5554L13.5601 12.4562C14.8379 7.43639 18.2149 3.23799 21.0443 3.14672C21.5006 3.14672 22.4589 3.46616 23.1435 3.83124Z" fill="black"/>
</g>
</svg>
