<svg width="48" height="55" viewBox="0 0 48 55" fill="none" xmlns="http://www.w3.org/2000/svg">
<g id="Frame 42">
<path id="Vector" d="M26.6031 4.07699C26.4371 4.44813 26.3662 7.02504 26.407 9.77913L26.4954 14.845L24.7724 15.2833C23.793 15.4815 22.8904 15.6505 22.7313 15.5793C22.5722 15.5082 22.2832 13.0248 22.001 10.0991C21.6112 5.2802 20.7152 2.58899 19.641 2.99929C19.4345 3.03419 18.973 6.19992 18.587 9.90837L17.9166 16.6709L13.4899 18.3177C9.49425 19.712 9.1399 19.9352 10.1292 20.5685C10.6943 21.0121 12.5276 21.3231 14.1669 21.3564C15.83 21.3366 17.2098 21.3811 17.3159 21.4286C17.687 21.5945 17.5231 28.6472 17.1438 29.4955C16.9303 29.9727 15.2004 30.8533 13.2765 31.4562C11.2996 32.0354 9.85289 32.8518 9.97012 33.1587C10.0873 33.4656 11.6667 33.9175 13.4414 34.0749C15.2692 34.2561 16.896 34.6019 17.1192 34.9563C17.3662 35.2576 17.7363 38.4135 17.9404 41.9405C18.4826 49.6907 19.3032 51.8392 21.0065 49.7378C21.4501 49.1727 22.0775 45.6359 22.3994 41.6442L23.0292 34.5454L24.6992 34.0835L26.3455 33.6745L26.6908 39.8732C26.9159 44.4913 27.2775 46.2436 28.0197 46.5756C29.4513 47.2158 30.5783 44.4114 31.5904 37.7381C32.01 34.8081 32.452 32.3972 32.5818 32.3916C34.3983 32.3133 40.4364 30.051 40.7684 29.3087C41.3849 27.9302 40.3831 27.6094 36.1069 27.9238L32.3734 28.1628L32.147 24.1168C32.0225 21.8343 31.88 19.7346 31.8688 19.4751C31.8813 19.1625 33.6406 18.3587 35.7416 17.6441C37.8427 16.9296 39.7024 16.0434 39.8447 15.7253C40.4612 14.3468 38.6934 13.7471 35.172 14.0809C33.1783 14.2709 31.3618 14.3492 31.1497 14.2544C30.8846 14.1358 30.1993 12.1115 29.5503 9.72158C28.3932 5.19573 27.1484 2.85754 26.6031 4.07699ZM26.4962 22.0986C26.6415 23.0543 26.6724 24.9769 26.5511 26.386C26.3923 28.7327 26.2208 28.9741 25.1116 29.1779C24.4685 29.3357 23.6899 29.3692 23.4779 29.2744C23.2128 29.1558 22.9698 27.1384 22.8691 24.8029C22.743 20.6745 22.7374 20.5448 24.0768 20.2531C25.9589 19.8859 26.1472 20.0338 26.4962 22.0986Z" fill="black"/>
</g>
</svg>
