<svg width="46" height="39" viewBox="0 0 46 39" fill="none" xmlns="http://www.w3.org/2000/svg">
<g id="Frame 44">
<path id="Vector" d="M19.5531 6.841V13.682L15.9839 11.8974C14.0208 10.9456 12.1767 10.1128 11.8198 10.1128C10.4516 10.1128 11.4034 11.9569 13.9613 14.2174C15.8054 15.8235 16.4598 16.7158 15.9244 16.8943C15.4485 17.0727 11.9388 18.0245 8.01265 18.9763C0.695754 20.7609 -0.791419 21.5343 0.338833 22.6645C0.755241 23.0809 3.61061 22.9025 9.97571 21.9507C14.9726 21.2368 19.1962 20.8204 19.3746 20.9989C19.5531 21.2368 18.5418 23.3189 17.1736 25.6984C15.7459 28.0778 14.5562 30.2194 14.4372 30.3978C14.3183 30.6358 14.6157 31.1117 15.0321 31.4686C15.7459 32.0635 16.3408 31.766 18.2444 30.1004C19.5531 28.9106 20.8618 27.9589 21.1593 27.9589C21.4567 27.9589 22.0516 29.7435 22.5275 31.9445C23.5387 37.0604 24.2526 38.6665 25.5613 38.6665C27.1674 38.6665 27.4649 36.8224 26.989 29.9814C26.751 26.5312 26.751 23.7948 27.0485 23.7948C27.3459 23.7948 29.7254 24.7466 32.3428 25.8768C37.5182 28.1373 39.1838 28.4348 39.1838 27.126C39.1838 25.9363 38.232 25.1035 33.6515 21.9507C31.4505 20.523 29.6659 19.1548 29.6659 18.9763C29.6659 18.7979 32.6997 17.7866 36.3879 16.7158C42.991 14.8122 45.7274 13.563 45.7274 12.4923C45.7274 11.6 41.9797 11.7784 36.031 12.8492C33.1756 13.3846 30.6177 13.682 30.4392 13.444C30.2608 13.2656 30.6772 11.7189 31.391 10.0533C34.0679 3.56921 32.4023 2.97435 28.2382 8.98253C26.6915 11.3025 25.1449 12.9682 24.9069 12.6707C24.669 12.4328 24.0146 10.0533 23.4198 7.43587C22.23 1.84409 21.4567 0 20.3264 0C19.7316 0 19.5531 1.54666 19.5531 6.841Z" fill="black"/>
</g>
</svg>
